<svg width="19" height="19" viewBox="0 0 19 19" fill="none" xmlns="http://www.w3.org/2000/svg">
<g opacity="0.8">
<path d="M18.5 9.71293C18.5 8.97294 18.4387 8.43294 18.3061 7.87295H9.68367V11.2129H14.7449C14.6429 12.0429 14.0918 13.2929 12.8673 14.1329L12.8502 14.2447L15.5764 16.3145L15.7653 16.3329C17.5 14.7629 18.5 12.4529 18.5 9.71293Z" fill="#05051F"/>
<path d="M9.68367 18.5129C12.1632 18.5129 14.2448 17.7129 15.7653 16.3329L12.8673 14.1329C12.0918 14.6629 11.051 15.0329 9.68367 15.0329C7.25512 15.0329 5.19391 13.4629 4.45914 11.2929L4.35144 11.3019L1.51664 13.4519L1.47957 13.5529C2.98976 16.4929 6.09181 18.5129 9.68367 18.5129Z" fill="#05051F"/>
<path d="M4.45914 11.2929C4.26527 10.733 4.15307 10.1329 4.15307 9.51294C4.15307 8.8929 4.26527 8.29292 4.44894 7.73293L4.44381 7.61367L1.57348 5.42912L1.47957 5.4729C0.857147 6.69292 0.5 8.06294 0.5 9.51294C0.5 10.9629 0.857147 12.3329 1.47957 13.5529L4.45914 11.2929Z" fill="#05051F"/>
<path d="M9.68367 3.99292C11.4081 3.99292 12.5714 4.72291 13.2347 5.33295L15.8265 2.85294C14.2347 1.40294 12.1632 0.512939 9.68367 0.512939C6.09181 0.512939 2.98976 2.53292 1.47957 5.4729L4.44894 7.73293C5.19391 5.56294 7.25512 3.99292 9.68367 3.99292Z" fill="#05051F"/>
</g>
</svg>
